HIERARCHY
ROOT Hips
{
	OFFSET -14.64140 90.27770 -84.91600
	CHANNELS 6 Xposition Yposition Zposition Zrotation Xrotation Yrotation
	JOINT Spine
	{
		OFFSET 0.00000 13.20850 -1.60436
		CHANNELS 3 Zrotation Xrotation Yrotation
		JOINT Spine1
		{
			OFFSET 0.00000 8.61716 0.00000
			CHANNELS 3 Zrotation Xrotation Yrotation
			JOINT Spine2
			{
				OFFSET 0.00000 8.61717 0.00000
				CHANNELS 3 Zrotation Xrotation Yrotation
				JOINT Spine3
				{
					OFFSET 0.00000 8.61717 0.00000
					CHANNELS 3 Zrotation Xrotation Yrotation
					JOINT Neck
					{
						OFFSET 0.00000 11.07920 1.10792
						CHANNELS 3 Zrotation Xrotation Yrotation
						JOINT Neck1
						{
							OFFSET 0.00000 7.08032 0.00000
							CHANNELS 3 Zrotation Xrotation Yrotation
							JOINT Head
							{
								OFFSET 0.00000 7.08031 0.00000
								CHANNELS 3 Zrotation Xrotation Yrotation
								End site
								{
									OFFSET 0.00000 0.00000 0.00000
								}
							}
						}
					}
					JOINT RightShoulder
					{
						OFFSET -0.01000 7.91373 5.19711
						CHANNELS 3 Zrotation Xrotation Yrotation
						JOINT RightArm
						{
							OFFSET -18.41580 0.00000 0.00000
							CHANNELS 3 Zrotation Xrotation Yrotation
							JOINT RightForeArm
							{
								OFFSET -29.11090 0.00000 0.00000
								CHANNELS 3 Zrotation Xrotation Yrotation
								JOINT RightHand
								{
									OFFSET -24.65040 0.00000 0.00000
									CHANNELS 3 Zrotation Xrotation Yrotation
									JOINT RightHandThumb1
									{
										OFFSET -5.35114 -0.85590 3.97906
										CHANNELS 3 Zrotation Xrotation Yrotation
										JOINT RightHandThumb2
										{
											OFFSET -4.52789 0.00000 0.00000
											CHANNELS 3 Zrotation Xrotation Yrotation
											JOINT RightHandThumb3
											{
												OFFSET -2.46976 0.00000 0.00000
												CHANNELS 3 Zrotation Xrotation Yrotation
												End site
												{
													OFFSET 0.00000 0.00000 0.00000
												}
											}
										}
									}
									JOINT RightHandIndex1
									{
										OFFSET -14.26970 0.00000 2.88139
										CHANNELS 3 Zrotation Xrotation Yrotation
										JOINT RightHandIndex2
										{
											OFFSET -5.48836 0.00000 0.00000
											CHANNELS 3 Zrotation Xrotation Yrotation
											JOINT RightHandIndex3
											{
												OFFSET -3.01859 0.00000 0.00000
												CHANNELS 3 Zrotation Xrotation Yrotation
												End site
												{
													OFFSET 0.00000 0.00000 0.00000
												}
											}
										}
									}
									JOINT RightHandMiddle1
									{
										OFFSET -14.26970 0.00000 -0.09147
										CHANNELS 3 Zrotation Xrotation Yrotation
										JOINT RightHandMiddle2
										{
											OFFSET -6.17441 0.00000 0.00000
											CHANNELS 3 Zrotation Xrotation Yrotation
											JOINT RightHandMiddle3
											{
												OFFSET -3.56743 0.00000 0.00000
												CHANNELS 3 Zrotation Xrotation Yrotation
												End site
												{
													OFFSET 0.00000 0.00000 0.00000
												}
											}
										}
									}
									JOINT RightHandRing1
									{
										OFFSET -12.69180 0.00000 -3.06433
										CHANNELS 3 Zrotation Xrotation Yrotation
										JOINT RightHandRing2
										{
											OFFSET -5.62556 0.00000 0.00000
											CHANNELS 3 Zrotation Xrotation Yrotation
											JOINT RightHandRing3
											{
												OFFSET -3.56744 0.00000 0.00000
												CHANNELS 3 Zrotation Xrotation Yrotation
												End site
												{
													OFFSET 0.00000 0.00000 0.00000
												}
											}
										}
									}
									JOINT RightHandPinky1
									{
										OFFSET -11.11390 0.00000 -6.03719
										CHANNELS 3 Zrotation Xrotation Yrotation
										JOINT RightHandPinky2
										{
											OFFSET -4.52789 0.00000 0.00000
											CHANNELS 3 Zrotation Xrotation Yrotation
											JOINT RightHandPinky3
											{
												OFFSET -2.46976 0.00000 0.00000
												CHANNELS 3 Zrotation Xrotation Yrotation
												End site
												{
													OFFSET 0.00000 0.00000 0.00000
												}
											}
										}
									}
								}
							}
						}
					}
					JOINT LeftShoulder
					{
						OFFSET 0.01000 7.91373 5.19711
						CHANNELS 3 Zrotation Xrotation Yrotation
						JOINT LeftArm
						{
							OFFSET 18.41580 0.00000 0.00000
							CHANNELS 3 Zrotation Xrotation Yrotation
							JOINT LeftForeArm
							{
								OFFSET 29.11090 0.00000 0.00000
								CHANNELS 3 Zrotation Xrotation Yrotation
								JOINT LeftHand
								{
									OFFSET 24.65040 0.00000 0.00000
									CHANNELS 3 Zrotation Xrotation Yrotation
									JOINT LeftHandThumb1
									{
										OFFSET 5.35114 -0.85590 3.97906
										CHANNELS 3 Zrotation Xrotation Yrotation
										JOINT LeftHandThumb2
										{
											OFFSET 4.52789 0.00000 0.00000
											CHANNELS 3 Zrotation Xrotation Yrotation
											JOINT LeftHandThumb3
											{
												OFFSET 2.46977 0.00000 0.00000
												CHANNELS 3 Zrotation Xrotation Yrotation
												End site
												{
													OFFSET 0.00000 0.00000 0.00000
												}
											}
										}
									}
									JOINT LeftHandIndex1
									{
										OFFSET 14.26970 0.00000 2.88139
										CHANNELS 3 Zrotation Xrotation Yrotation
										JOINT LeftHandIndex2
										{
											OFFSET 5.48836 0.00000 0.00000
											CHANNELS 3 Zrotation Xrotation Yrotation
											JOINT LeftHandIndex3
											{
												OFFSET 3.01859 0.00000 0.00000
												CHANNELS 3 Zrotation Xrotation Yrotation
												End site
												{
													OFFSET 0.00000 0.00000 0.00000
												}
											}
										}
									}
									JOINT LeftHandMiddle1
									{
										OFFSET 14.26970 0.00000 -0.09147
										CHANNELS 3 Zrotation Xrotation Yrotation
										JOINT LeftHandMiddle2
										{
											OFFSET 6.17440 0.00000 0.00000
											CHANNELS 3 Zrotation Xrotation Yrotation
											JOINT LeftHandMiddle3
											{
												OFFSET 3.56744 0.00000 0.00000
												CHANNELS 3 Zrotation Xrotation Yrotation
												End site
												{
													OFFSET 0.00000 0.00000 0.00000
												}
											}
										}
									}
									JOINT LeftHandRing1
									{
										OFFSET 12.69180 0.00000 -3.06433
										CHANNELS 3 Zrotation Xrotation Yrotation
										JOINT LeftHandRing2
										{
											OFFSET 5.62556 0.00000 0.00000
											CHANNELS 3 Zrotation Xrotation Yrotation
											JOINT LeftHandRing3
											{
												OFFSET 3.56744 0.00000 0.00000
												CHANNELS 3 Zrotation Xrotation Yrotation
												End site
												{
													OFFSET 0.00000 0.00000 0.00000
												}
											}
										}
									}
									JOINT LeftHandPinky1
									{
										OFFSET 11.11390 0.00000 -6.03719
										CHANNELS 3 Zrotation Xrotation Yrotation
										JOINT LeftHandPinky2
										{
											OFFSET 4.52789 0.00000 0.00000
											CHANNELS 3 Zrotation Xrotation Yrotation
											JOINT LeftHandPinky3
											{
												OFFSET 2.46976 0.00000 0.00000
												CHANNELS 3 Zrotation Xrotation Yrotation
												End site
												{
													OFFSET 0.00000 0.00000 0.00000
												}
											}
										}
									}
								}
							}
						}
					}
					JOINT pCube4
					{
						OFFSET 0.00000 10.91090 1.10792
						CHANNELS 3 Zrotation Xrotation Yrotation
						End site
						{
							OFFSET 0.00000 0.00000 0.00000
						}
					}
				}
			}
		}
	}
	JOINT RightUpLeg
	{
		OFFSET -9.98441 0.00000 0.00000
		CHANNELS 3 Zrotation Xrotation Yrotation
		JOINT RightLeg
		{
			OFFSET 0.00000 -42.11790 0.00000
			CHANNELS 3 Zrotation Xrotation Yrotation
			JOINT RightFoot
			{
				OFFSET 0.00000 -45.00020 -0.00001
				CHANNELS 3 Zrotation Xrotation Yrotation
				JOINT RightForeFoot
				{
					OFFSET 0.00000 -3.74820 0.00000
					CHANNELS 3 Zrotation Xrotation Yrotation
					JOINT RightToeBase
					{
						OFFSET 0.00000 0.06325 14.43120
						CHANNELS 3 Zrotation Xrotation Yrotation
						End site
						{
							OFFSET 0.00000 0.00000 0.00000
						}
					}
				}
			}
		}
	}
	JOINT LeftUpLeg
	{
		OFFSET 9.98441 0.00000 0.00000
		CHANNELS 3 Zrotation Xrotation Yrotation
		JOINT LeftLeg
		{
			OFFSET 0.00000 -42.11800 0.00000
			CHANNELS 3 Zrotation Xrotation Yrotation
			JOINT LeftFoot
			{
				OFFSET 0.00000 -45.00070 0.00000
				CHANNELS 3 Zrotation Xrotation Yrotation
				JOINT LeftForeFoot
				{
					OFFSET 0.00000 -3.74824 0.00000
					CHANNELS 3 Zrotation Xrotation Yrotation
					JOINT LeftToeBase
					{
						OFFSET 0.00000 0.06325 14.43110
						CHANNELS 3 Zrotation Xrotation Yrotation
						End site
						{
							OFFSET 0.00000 0.00000 0.00000
						}
					}
				}
			}
		}
	}
}
MOTION
Frames: 4
Frame Time: 0.050000
-0.026873943899577077 0.03134516445285248 -0.0065368724891032085 0.022413645460075314 0.030739535898128376 -0.03298688062001411 5.453672180028577 3.5617300714552957 -2.220927813593413 -0.7951265275146895 3.6242437849204223 0.4289700237194149 -0.5374614486105993 -1.097962534535549 0.8755118380388015 -0.46454267281123957 -0.269393819677482 -0.23281403019031235 -0.15405177705069967 12.637614933599336 -1.1233435487618435 0.3837718620370033 -0.742961362312644 -2.2581039066104105 0.9076274029090732 -17.542538953985954 -0.19978033071487733 -9.947004164833496 3.4602643446162724 -17.94117216064048 83.80501257624076 8.711793527988867 2.1341525448656116 -4.270037516559474 7.365615674536609 44.23793117687449 17.615777792659383 -0.3093297102099958 -2.6378003553753264 4.570378433329342 -0.08329237992123863 -1.562062190833837 -0.018251079592432842 0.01586500974174748 -56.23724500258283 -0.04691920982312307 -0.042664548495847235 -56.26404362464912 -38.80013047536338 -0.03854144988024165 -0.040417609075133 0.028671398518781165 -0.025331682091477504 0.003644682907895558 0.04862898558673172 0.00833780894428838 0.0425765486439785 -36.67761092087021 0.037594074829200734 0.037954479842682874 0.0004929392771947863 -0.024294246197741842 -0.019806800086111593 -0.012933753385429406 0.037179079677188684 0.021270511406979584 -19.808112780859986 -0.0008777119675188327 0.02910980874312199 -0.0007825709926187294 0.04533071791241821 -0.03321450012728167 -0.02732539091926114 -0.04922768856543188 -0.017443967069958766 24.0327112764047 -0.03888250201361575 0.04575942536239942 28.86832086127097 0.0027193776939827084 0.018349686811396135 28.833422179859287 0.005340676285756288 -0.018465143407207108 10.110466031485798 2.419420236728996 15.20409092736908 -78.47486170757054 17.69807581025413 -12.642030156591654 2.223151744568275 7.178430192577147 -45.84940052382445 -18.906027561386136 -0.8147287857929336 0.8875099379417524 -0.48582411026536154 0.10431695224350125 -8.09641108942515 0.0010787831794753402 0.028556151371073223 44.59835224966599 -0.022747462064355226 0.026804701129760848 44.54172241076811 12.442893570802186 0.0029303564196636774 0.006715299620386212 0.014610503731258037 -0.045490972601664265 0.04125913423047138 -0.04474248641394701 -0.03201813921731354 -0.0010620295463838777 11.060328762560538 0.03104555872395665 -0.03590526737168547 0.03415114757750433 0.01441762032477673 -0.03430578109060801 0.03232777321714941 -0.04698272085987477 -0.020421402283451753 4.802315174164462 -0.022921742015306286 0.034306110757105004 0.018731973155363266 -0.03604387555972669 0.025559563320228032 -0.040619323359079126 0.026893947596339278 0.045336145901434144 -5.637021321529857 0.020343804664052445 -0.007128099442703816 -6.704583017219498 0.04542127607690233 -0.03717437247536343 -6.747145208380366 -0.020024359507042545 0.0334740839460976 0.027055848563120273 -0.03149603696829582 0.021551680110347814 8.066886760298008 3.531805759842196 -19.194349063252766 -0.022658659385790498 10.422977797818795 0.04325442036855699 -5.6573873640255155 -15.61080991827546 3.187512437234536 -0.03902956292549876 0.02307305792412033 -0.028991472640805368 -0.036337605233395125 4.6877940383667545 0.04406472705864494 12.474644643423648 -8.231897669779004 6.903794901067743 0.043711715869312044 46.332010596238455 -0.025977888628435683 -4.359716985477902 -14.770482931673778 -3.827812280654071 -0.0055033967213262295 -0.026406145808149786 -0.047977997329190857 0.007401362122336507 -10.777972041073632 -0.00026331099290000765 
-0.009500677127942697 0.021966370491184908 -0.017719385000904947 -0.0018132963834417808 -0.00954833209561469 0.02507433233591786 5.530365892825285 3.469612509920743 -2.195431773595605 -0.789062757486631 3.65613555602618 0.3971280156571669 -0.5266362811599691 -1.1014687014140996 0.7897055406381602 -0.5107885003642277 -0.3449693562021683 -0.19576339518140543 -0.31435950907408383 13.083550599317498 -1.037517440418945 0.3543507314813636 -0.7061100420357299 -1.6388725094306658 0.7652711997266037 -17.478721019665816 -0.2308825941021611 -10.068945550448362 3.4542475260971894 -17.987595629413658 83.84355372427811 8.409036765495124 2.46725730634341 -4.231497937973789 7.507512216746772 44.32500820851058 17.751811741620003 -0.2761157906096103 -2.503504647417104 4.540503051429891 -0.11205839984245577 -1.5766055068145266 -0.017475306223841098 0.037202250391120927 -56.20298627074639 0.010158660286603225 0.045375082444068876 -56.20500871330147 -38.79468773854291 -0.0015234224717592722 0.02488531424548054 0.00384337084266797 0.028830650468427973 0.02884152150359196 0.027452235256344243 0.010835192316701384 -0.012352340292198288 -36.718382666219085 0.0233599550158559 0.03701389270457716 -0.0372535735893657 -0.02375615205543236 -0.0005941482144422573 -0.04331420451771873 -0.023613440054267944 -0.027145964950137744 -19.71470288053819 0.0005970430551929084 -0.025811089750666875 -0.003159272042214281 -0.0025288991629841954 -0.03101354777846639 -0.004722242977750701 0.018325595637030963 0.010234482573527817 24.09035553419008 0.03577336408625964 0.030882000860775912 28.8716425520587 0.0012463796661111245 -0.042792257528238835 28.879316264480664 0.004143122247066914 -0.0003308359661215231 10.855138597172347 2.5758835381692777 15.44065349086575 -79.07523850679839 15.589948774541725 -16.701138168530367 0.5911569969510638 9.462608444655139 -50.7545720310733 -18.140970942885208 -0.4019339828939258 0.16206215990307718 -0.4826264931516203 0.07722727341649534 -8.13839377678616 0.012651089798311059 -0.04070853922197814 44.55106214803391 0.005266601877431875 -0.040288481554469575 44.553658016459124 12.438496986814124 0.02342663475112264 0.00525097723182263 -0.04044657503017858 -0.03291130451957928 -0.02051831651266334 0.014851159935302668 0.01769511841116771 0.00993871195817931 11.118814656585105 0.028624442159691958 0.04670138207134002 -0.004608856391753255 -0.029762378709176487 -0.022395191200386754 0.010983941440360787 -0.021927849076925993 -0.000426171123488568 4.820084570733661 0.016749682059288198 0.0008460181948627918 -0.02521969889228037 0.026282919286789837 -0.022113489798086295 0.04317416994972685 -0.015160866052532432 -0.03417454885740797 -5.600493480685031 -0.00860076624579889 0.002813226048280744 -6.697776287149005 -0.022010526051536024 0.009580742963830482 -6.68553541297622 -0.027468713735480172 0.01864943631990019 -0.0030443933669274358 0.03319407163557315 -0.031293535353988274 8.047113545043603 3.5157026311930832 -19.191025023020195 0.010019979129876082 10.406849171916846 0.02438406565012026 -5.626745149997826 -15.673363973737546 3.230409648777397 0.02841585715233626 -0.012187313823435537 0.0058131851800362335 0.009236026811507576 4.739550065508422 -0.015698444698133758 12.508834230311773 -8.250209659929661 6.859826360138982 -0.04115781772888796 46.3975075957026 -0.031349607166632584 -4.307219455596442 -14.788401167706128 -3.8404955085269066 -0.04434066544033495 -0.04760231352646325 -0.04720602164505992 0.03411508055154661 -10.717858409093502 -0.013272076557287061 
0.0025468444703942803 -0.02898249518156089 -0.04929950559550689 0.027080934249661334 -0.030020391090129925 -0.030088966152405274 5.596086128021272 3.3747269214538957 -2.212285027332975 -0.7216333759333048 3.6959624926740235 0.39171132962236216 -0.5519542616550358 -1.1026510128090081 0.7065513103134434 -0.6016286934278464 -0.3880349052867794 -0.21856473123368192 -0.47050237187319305 13.43270711559484 -0.88893751536497 0.3505050343902676 -0.5790996506530458 -1.148338689931105 0.7382732649341804 -17.284098044124555 -0.16751962253433234 -10.262315432840339 3.504872820145934 -18.019556870314414 83.79823151698012 7.9909625777786655 2.840298093198569 -4.139711537866013 7.591623570995768 44.26430750343837 17.83833841672355 -0.24353085867798344 -2.3328147922179157 4.544334392358734 -0.13313410820372137 -1.5882231214240885 0.04242267900908491 -0.003164160397235823 -56.26048601120404 0.022446772478836134 -0.04344587673318656 -56.27734151376764 -38.754953548022314 -0.033876079398758065 0.018895588024442737 0.03114370653752144 0.0347720376913553 -0.037212612149670934 0.03607012998205211 0.0144971293452822 0.026038219248279912 -36.67481147426883 -0.019814169677336194 -0.006042701379934785 -0.01741724286724471 -0.017137429005377958 0.0021537098765791692 -0.018751192636970525 0.0151931633449535 0.015698772385164064 -19.73406971568935 -0.01744155735325834 -0.02327145011291924 0.040409138220678285 0.0031840457245553597 -0.003798306632282551 -0.019908823141478117 0.049107142593271896 0.013054041535705387 24.02318729904407 -0.035208456894449305 -0.033730790315917206 28.85172216655044 -0.015319707778139605 -0.010368037021187958 28.868984544523332 -0.019428946919168442 -0.0458147954078553 11.722587914935557 2.6629200076224544 15.639866263173632 -79.65316901771843 12.978317911361023 -21.311027900942292 -0.9147780824445221 11.628955873640061 -56.30087334083338 -16.881560667639192 0.3597445884826582 -0.7878728769296468 -0.4527278430207222 0.0648477006957812 -8.074655812292576 0.023591228804251015 0.04229398291233384 44.558683703943004 0.0062501080229542694 -0.006429915162324797 44.54785312846584 12.421621428145912 -0.01934329745577731 -0.03213023548717117 0.04837207915134046 0.009563235508454372 -0.0011467287085535833 0.009942275771661358 0.04439000524081735 -0.025813171355625504 11.114115813708597 0.0157051039904544 0.006553275248854477 -0.029443667010852617 -0.003985173975249011 0.002201544386483761 0.02496277911553701 -0.01504964655423952 -0.03893565283560369 4.77394466739209 -0.02719143103634456 -0.04027280039999944 -0.009529555535009648 0.010787580667301877 -0.021040177880496523 -0.020011341980866085 0.01862440669075179 -0.0012504215132479947 -5.620167528156758 0.03893210626123435 -0.03256857975164374 -6.735884539487863 0.00394422853912408 -0.0031707912054343254 -6.687262578818152 0.041903914915162155 -0.04942875620534897 -0.02484272897368872 0.03590265363636148 -0.021000975306387008 8.05515647428813 3.457620170553534 -19.18318625277393 -0.026729539683065955 10.407437246794135 0.056706122287148344 -5.58093039297781 -15.685819188493502 3.193173862872395 -0.033877701409949924 -0.02542369380317306 -0.01681989714017634 0.0020874874479018123 4.708136284875797 0.0270052912849373 12.460723575033706 -8.262629210097636 6.892759718394973 -0.004944746114050686 46.41304370588942 -0.012634716716071255 -4.299419972761623 -14.711474050975323 -3.8475571886520368 0.03346084936843903 0.02890914480252338 -0.02077482267594242 0.030924144788695065 -10.785753782760953 0.007091554572658876 
-0.026375030811735437 -0.028646507937954646 0.02710495324763809 -0.004809623237254824 0.0007190109209351674 -0.039357959212185094 5.6571150477129075 3.2411151339208453 -2.3128174777715214 -0.7979625627599269 3.639076301998724 0.3612723609144096 -0.5203528816373965 -1.1272192986363638 0.49615210626898687 -0.552277711231575 -0.33504158887976165 -0.21541358404556255 -0.6013892961110233 13.604394616468259 -0.7449549293849517 0.3999147473998356 -0.5626456343853311 -0.8003635740631313 0.6365600158602445 -17.295026972048284 -0.08586650328713882 -10.271073880046027 3.5427552561114526 -17.962200581413427 83.72665602872097 7.878832791059682 2.847663915966213 -4.133366831316686 7.65646067522934 43.95623859122879 17.952857225079836 -0.25470349668420883 -2.2781726444515797 4.517988332560389 -0.17372673340026312 -1.5609624516241614 0.009646342366192072 0.037332721425177615 -56.202615745255564 0.03841246900720266 0.013547418293839606 -56.22883403720538 -38.7973471432059 -0.01621281752582094 0.022869490972022587 0.03199605831597636 -0.026886675011474574 0.001874132373017569 -0.02075443395246659 -0.03832483080633521 0.04204133961007388 -36.69770343330324 -0.002016342513661756 0.007915395547439941 0.004994242866165931 0.04204523672685581 0.020776396647369088 -0.005878739778931221 0.0451774875728581 0.0455014767572995 -19.77512449329818 -0.02061624715316123 0.03981440648915328 -0.008874427740580932 0.031133671458059575 0.03864090397588501 0.00832653057634964 0.012826677643604449 0.02720965548217772 24.04599216930999 0.004419997343107653 0.043703537879960126 28.867504742812955 -0.04800353799545813 -0.03843852679615702 28.870284934149073 -0.04428737874943898 0.031143409304407007 12.304228972085745 2.8462332101945904 15.76924612910132 -79.81585446116152 10.970963177603561 -24.67237194000531 -1.7462251496095644 13.144871218280205 -60.47377375522354 -15.781088851912887 1.026711132912855 -1.690047387452988 -0.4982533484638324 0.08643468695653343 -8.14263785318623 0.010017890666652861 -0.012199779771116522 44.61121261334902 0.02222846790812512 0.005820623711039034 44.578244009117476 12.488626925132984 0.0016313514273066936 -0.012564406273414085 0.011203317941752004 0.048792728114479544 0.01120802972912509 0.02868873309111226 0.0033217566690229793 0.03754507561844344 11.124439343736164 0.026723283840074424 0.004326999274186627 -0.0023479480675433193 -0.029335884093649917 0.0410611639394766 -0.04963810823117266 0.03283855801245448 0.022115845674203865 4.815648396064035 0.027968017132791297 -0.006849521067241989 -0.04466881742237643 -0.030470737210354478 -0.0021314993287323463 0.03242892135537296 -0.03832501981341166 0.044195543823349774 -5.59240825860964 -0.0017261951793669816 0.03781883603811853 -6.679198625396408 -0.017544365724710024 0.04021678145213231 -6.7336404743596345 -0.01084876596750082 -0.012350146736100168 -0.01085900330621512 -0.044325090509942086 -0.016221799950032444 8.090728596696852 3.5005017395919777 -19.172984421831845 0.007215701981034042 10.387167462394874 0.038100655957209933 -5.642088789874152 -15.691164789074188 3.2167914450958586 -0.019383228799391115 -0.029260157007017572 -0.0022514643013752415 0.03972578385665992 4.64926973536039 0.025716655979783464 12.481279189318082 -8.255401998507383 6.886589042209766 -0.007395914812676997 46.38773308363495 -0.019947409452184713 -4.295611664902467 -14.736768344604224 -3.807645484692687 0.029819947171974073 0.01925874544402087 -0.02528307453843879 0.033195029095705215 -10.77121482587286 0.011774764574380613 
